<?xml version="1.0" encoding="utf-8"?>
<!-- Generator: Adobe Illustrator 28.1.0, SVG Export Plug-In . SVG Version: 6.00 Build 0)  -->
<svg version="1.1" id="Layer_1" xmlns="http://www.w3.org/2000/svg" xmlns:xlink="http://www.w3.org/1999/xlink" x="0px" y="0px"
	 viewBox="0 0 500 500" style="enable-background:new 0 0 500 500;" xml:space="preserve">
<style type="text/css">
	.st0{fill:#FFFFFF;}
</style>
<g>
	<path class="st0" d="M148.2,214.1c5.6-17.8,7.1-25.4,8.3-34.2c0.6-4.3-0.3-5.4-1.5-4.9c-1.4,0.5-2.2,2.5-2.6,3.6l-16.4,39.3
		l-8.6,29c-1,3.3-2.2,8.6-5.9,9.9c-4.7,1.7-10.3-6.4-12.8-9.4l12.8-38.4c4.1-25.6,1.3-27.1-0.6-26.4c-0.9,0.3-2.3,1.9-3,2.6
		c-28.9,28.9-23.4,27.2-29.1,29.3c-1.8,0.7-3.8-0.3-4.2-3.2c-1.1-6.5-2.4-13.1-1.9-14.4c0.5-1.7-0.1-1.3,7.4-12
		c0.4-0.7,1.5-2.3,2.2-2.6c0.6-0.2,1.5,0,1.8,0.6c0.2,0.7-0.6,3.3-3.6,8.7l0.3,0.1l10.6-10.5c1.2-1.1,14.3-14.4,18.5-15.7
		c2.8-0.9,3.8,0.5,5.6,2.1l4.4,3.8c1.3,1.2,2.3,2.1,2.9,3.8c1.4,3.7-0.1,17.6,0.2,22.2l0.3,0.1l11.6-23.9
		c2.7-5.5,9.3-17.4,13.9-19.2c2.4-1,8.9-1.1,11.1,4.8c3,8.4-3.1,29.5-5.1,38.3l0.3,0.1c9.5-17,18.1-34.1,28.6-51.2
		c1-1.8,2.4-5,4.4-5.7c3.1-1.1,10.5,4.5,11.3,6.9c0.8,2.3-1.2,7.5-2,9.7l-9.7,27.7c-2.9,8.2-6.8,21.8-3.7,30.4
		c0.8,2.3,3.3,5.1,6,4.1c3.2-1.2,10.1-9.4,20-29.8l2,4.1c0.1,8.8-17.2,36.8-26.9,40.4c-7.5,2.7-12.5-3.5-14.9-10.1
		c-4.9-13.6,3.2-35.7,7.4-48.9l-0.3-0.1c-13.3,23.3-17.7,30.6-27.2,59.6c-0.9,2.8-4,11.2-6.8,12.2c-4.4,1.6-9-6-10.1-9.2
		c-1.2-3.2,0.3-7.5,1.3-10.6L148.2,214.1z"/>
	<path class="st0" d="M242.5,202.5c-1.5,2.5-6.6,11-9.2,11.9c-3.2,1.2-12.4-3.9-14.8-9.7c-5.6-14,18.5-39.1,31.5-44.2
		c5.2-2,8.8,1.4,9.3,2.8c0.5,1.4-2,3.6-2.9,4.3c2.5,0.1,4.1,1,5,3.4c1.3,3.6-5.6,15.1-3.7,20.4c0.7,1.9,2.7,2.1,4.5,1.4
		c4.7-1.7,9.1-9.8,12.8-14.9l2.4,3.9c-2.8,7.3-13.6,24.9-19.1,26.9c-3.7,1.4-6.4-0.7-7.6-4c-1.3-3.6-0.8-10.6-0.4-14.2l-0.3-0.1
		L242.5,202.5z M227.7,204.5c0.3,0.5,1.5,2.4,3.1,1.4c2.1-1.3,5.7-2.2,19.9-33l-0.3-0.1C226.5,190.9,225.7,199,227.7,204.5z"/>
	<path class="st0" d="M314.4,145.5c-1.6,7.2-4.3,16.6-1.7,23.8c0.7,1.8,2.2,5.6,4.7,4.7c3.8-1.4,10.9-14.3,13.7-18l2.1,3.4
		c-3.2,7.8-10.5,23.9-18.7,26.9c-4.3,1.6-7.6-2.3-9-6c-1-2.8-1.6-5.9-2.2-8.9c-2.7,4.8-9.2,19.6-14.3,21.5s-12.2-7.8-13.6-11.8
		c-4.9-13.3,13.5-32.8,22.9-36.9c2.3-1,3.8,0.3,5.9,1.4c1.4-7.8,2.8-34.8,11.1-37.8c2.3-0.8,4.4,0.9,5.2,3c1.2,3.4-0.1,9.1-0.9,12.6
		L314.4,145.5z M286.1,179.8c0.3,1.1,1.2,1.8,2.5,1.5c1.5-0.2,14.7-20.3,14.1-27.7C285.1,167.4,284,172.1,286.1,179.8z"/>
	<path class="st0" d="M374.3,144.1c-4,10.5-12.5,25.7-23.7,29.8c-8.2,3-14.8-2.9-17.7-10.3c-5.8-14.6,5-35.7,19.8-41
		c3.6-1.3,8.5-2.1,10.1,2.5c2,5.5-0.5,15.9-19.6,30.9l0.7,2.6c1.2,4.4,5.5,4.5,9.1,3.2c8-2.9,14.5-14.6,18.8-21.6L374.3,144.1z
		 M353.7,131c-0.3-0.8-1.1-1.3-1.8-0.7c-5.1,3.5-9.7,11.3-10,19.9C350.6,143.2,354.5,132.9,353.7,131z"/>
	<path class="st0" d="M247.6,237.4c-1.4,12.7-0.8,17.2-13.5,20.9c-2,6.4-5.1,18-2.6,24.8c0.9,2.5,2.2,3.7,4.8,2.7
		c3.6-1.3,6.5-6.2,15.2-18.8l2.4,4.8c-4.4,8.5-12.3,25.1-21.9,28.6c-4.4,1.6-8.2-0.5-9.9-5c-1.4-3.7-1.5-8.6-1.2-12.4l-0.3-0.1
		l-4.1,6.7l-2.8-3.8c4.9-7.7,9-15.7,10.6-24.3c-6.9,2.5-4.9,1.3-10.6,4.4l0.5-2.5c2.5-12.2,2.7-14.3,14.7-19.2
		c1.7-5.9,2.3-12.1,8.8-14.5c1.5-0.5,3.7-1,4.4,0.8c0.7,2-1.2,7-1.7,9L247.6,237.4z"/>
	<path class="st0" d="M298.5,253c-2.7,8.3-6.7,12.8-15,15.8c-3,6.6-7.2,12.2-14.3,14.8c-5.9,2.1-13.4-1.8-17.6-11.9
		c-3.3-8.4-1.2-15.6,3.4-22.7c4.3-7.2,11.3-13.2,18.1-16.1c2.4-1,6.6-1.2,7.7,1.8c0.6,1.7-0.5,2.9-1.5,4c3.7-0.3,5.3,1.8,6.5,5.2
		c1.8,5,1,9.8,0.4,14.9c5.3-0.9,6.9-6.4,9.5-10.2L298.5,253z M262.1,260.3c-1.6,3.4-2.1,8.6-0.8,12.1c1.2,3.3,3.7,3.5,6.5,2.5
		c3.7-1.4,5.3-4.4,7.1-7.7c-1.4-1.5-2.5-2.8-3.2-4.7c-2.1-5.9,0.6-14.9,0-15C268.6,251.1,264.3,255.7,262.1,260.3z"/>
	<path class="st0" d="M205.4,317.3c4.1-2.9,7.7-3.6,10.5-2.7c2.9,1,5.2,3.6,6.8,7.7c8.7,22.3-7.1,62.5-33,71.7
		c-9,3.1-21.1,1.4-28.5-15.7c-10.2-23.9,17.3-65.3,38-76.3c5-2.7,13.6,3.2,14.3,5.1c0.9,2.4-2.6,4.8-4.1,6c-1.6,1.3-2.8,2.8-4.1,4.3
		L205.4,317.3z M181.6,354.9c-1.5,0.5-2.3-1.6-2.7-2.6c-4,8.6-6.9,19.9-3.6,29.2c1.4,4,4.4,6.7,8.7,5.2c6.3-2.3,14.4-10.6,17.7-16.4
		c10.5-18.4,14-35.3,11.4-43.7c-0.9-2.8-3.5-5-6.4-3.9c-9.9,3.6-20.2,18-22.6,27.9C183.6,351.7,182.9,354.4,181.6,354.9z"/>
	<path class="st0" d="M236.6,348.4c-1.7,7.7-5.4,12.3-8.5,18.9l-2.3-4.8c2.1-3.4,3.4-7.1,4.5-11c-2.5,0.6-3.5,0-4.3-2.4
		c-3-8.1,5.6-20.5,8.3-21.5c1.1-0.4,2.4,0.2,2.7,1.2c0.4,1.1,0.4,2.3,0.4,3.5c10.1-5.3,15.8-9,17.4-8c2.5,1.5,3.9,3.1,4.9,5
		c1.3,3.5-0.3,6-2.1,9.1c-2.2,4-5.8,11.6-4.1,16.1c0.7,1.8,3,2.5,4.7,1.9c4.9-1.8,9.3-11.7,12-15.9l2.3,3.9
		c-2.5,6.4-11,23.7-17.4,26c-4.7,1.7-9.3-1.6-10.9-5.9c-2.8-7.7,0.9-15.8,3.4-22.9l-0.3-0.1L236.6,348.4z"/>
	<path class="st0" d="M309.4,310.1c-1.6,7.2-4.3,16.6-1.7,23.8c0.7,1.8,2.2,5.6,4.7,4.7c3.8-1.4,10.9-14.3,13.7-18l2.1,3.4
		c-3.2,7.8-10.5,23.9-18.7,26.9c-4.3,1.6-7.6-2.3-9-6c-1-2.8-1.6-5.9-2.2-8.9c-2.7,4.8-9.2,19.6-14.3,21.5
		c-5.1,1.9-12.2-7.8-13.6-11.8c-4.9-13.3,13.5-32.8,22.9-36.9c2.3-1,3.8,0.3,5.9,1.4c1.4-7.8,2.8-34.8,11.1-37.8
		c2.3-0.8,4.4,0.9,5.2,3c1.2,3.4-0.1,9.1-0.9,12.6L309.4,310.1z M281.1,344.5c0.3,1.1,1.2,1.8,2.5,1.5c1.5-0.2,14.7-20.3,14.1-27.7
		C280.1,332.1,279.1,336.8,281.1,344.5z"/>
	<path class="st0" d="M369.3,308.8c-4,10.5-12.5,25.7-23.7,29.8c-8.2,3-14.8-2.9-17.7-10.3c-5.8-14.6,5-35.7,19.8-41
		c3.6-1.3,8.5-2.1,10.1,2.5c2,5.5-0.5,15.9-19.6,30.9l0.7,2.6c1.2,4.4,5.5,4.5,9.1,3.2c8-2.9,14.5-14.6,18.8-21.6L369.3,308.8z
		 M348.7,295.7c-0.3-0.8-1.1-1.3-1.8-0.7c-5.1,3.5-9.7,11.3-10,19.9C345.6,307.9,349.5,297.6,348.7,295.7z"/>
	<path class="st0" d="M372.9,298.8c-1.7,7.7-5.4,12.3-8.5,18.9l-2.3-4.8c2.1-3.4,3.4-7.1,4.5-11c-2.5,0.6-3.5,0-4.3-2.4
		c-3-8.1,5.6-20.5,8.3-21.5c1.1-0.4,2.4,0.2,2.7,1.2c0.4,1.1,0.4,2.3,0.4,3.5c10.1-5.3,15.8-9,17.4-8c2.5,1.5,3.9,3.1,4.9,5
		c1.3,3.5-0.3,6-2.1,9.1c-2.2,4-5.8,11.6-4.1,16.1c0.7,1.8,3,2.5,4.7,1.9c4.9-1.8,9.3-11.7,12-15.9l2.3,3.9
		c-2.5,6.4-11,23.7-17.4,26c-4.7,1.7-9.3-1.6-10.9-5.9c-2.8-7.7,0.9-15.8,3.4-22.9l-0.3-0.1L372.9,298.8z"/>
</g>
</svg>
