<?xml version="1.0" encoding="utf-8"?>
<!-- Generator: Adobe Illustrator 28.1.0, SVG Export Plug-In . SVG Version: 6.00 Build 0)  -->
<svg version="1.1" id="Layer_1" xmlns="http://www.w3.org/2000/svg" xmlns:xlink="http://www.w3.org/1999/xlink" x="0px" y="0px"
	 viewBox="0 0 500 500" style="enable-background:new 0 0 500 500;" xml:space="preserve">
<style type="text/css">
	.st0{fill:#CC323E;}
</style>
<polygon class="st0" points="249.5,39 289,0 314.6,49.3 364.2,24.4 373.2,79.2 428.1,70.9 419.8,125.8 474.6,134.8 449.7,184.4 
	499,210 460,249.5 499,289 449.7,314.6 474.6,364.2 419.8,373.2 428.1,428.1 373.2,419.8 364.2,474.6 314.6,449.7 289,499 
	249.5,460 210,499 184.4,449.7 134.8,474.6 125.8,419.8 70.9,428.1 79.2,373.2 24.4,364.2 49.3,314.6 0,289 39,249.5 0,210 
	49.3,184.4 24.4,134.8 79.2,125.8 70.9,70.9 125.8,79.2 134.8,24.4 184.4,49.3 210,0 "/>
</svg>
