<?xml version="1.0" encoding="UTF-8" standalone="no"?>
<!DOCTYPE svg PUBLIC "-//W3C//DTD SVG 1.1//EN" "http://www.w3.org/Graphics/SVG/1.1/DTD/svg11.dtd">
<svg width="100%" height="100%" viewBox="0 0 1962 1814" version="1.1" xmlns="http://www.w3.org/2000/svg" xmlns:xlink="http://www.w3.org/1999/xlink" xml:space="preserve" xmlns:serif="http://www.serif.com/" style="fill-rule:evenodd;clip-rule:evenodd;stroke-linecap:round;stroke-linejoin:round;stroke-miterlimit:72;">
    <g transform="matrix(1,0,0,1,-799.833333,-1503.833333)">
        <g id="button-W" serif:id="button W">
            <path d="M903.054,2718.481C859.371,2689.882 840.333,2635.515 856.634,2585.912C904.222,2441.106 1000.53,2148.048 1042.126,2021.475C1054.938,1982.489 1081.465,1949.477 1116.778,1928.572C1240.417,1855.381 1542.165,1676.753 1694.238,1586.729C1749.803,1553.836 1819.233,1555.385 1873.276,1590.723C2023.97,1689.263 2325.863,1886.671 2442.495,1962.937C2473.323,1983.095 2496.742,2012.75 2509.206,2047.411C2550.955,2163.515 2650.29,2439.765 2701.024,2580.856C2719.167,2631.31 2700.165,2687.615 2655.159,2716.758C2480.525,2829.843 2054.362,3105.804 1865.598,3228.038C1809.306,3264.49 1736.812,3264.309 1680.702,3227.576C1493.741,3105.18 1073.601,2830.13 903.054,2718.481Z" style="fill:white;stroke:black;stroke-width:58.33px;"/>
            <path d="M2137.5,1763.5C2137.5,1763.5 2307.158,1874.439 2411.071,1942.388C2428.745,1953.946 2439.511,1973.54 2439.787,1994.656C2440.063,2015.773 2429.813,2035.642 2412.447,2047.657C2267.048,2148.255 1956.817,2362.897 1830.858,2450.045C1798.046,2472.747 1754.431,2472.08 1722.329,2448.385C1596.994,2355.876 1284.674,2125.355 1139.037,2017.861C1121.919,2005.226 1112.274,1984.852 1113.352,1963.604C1114.43,1942.356 1126.086,1923.062 1144.394,1912.224C1251.081,1849.068 1423.5,1747 1423.5,1747" style="fill:none;stroke:black;stroke-width:58.33px;"/>
            <path d="M1787,2599L1787,3116" style="fill:none;stroke:black;stroke-width:58.33px;"/>
            <g>
                <g transform="matrix(1,0,0,1,935,894)">
                    <g transform="matrix(725.944104,0,0,725.944104,522.418692,1343.943745)">
                        <path d="M0.256,-0.301L-0.028,-0.46L-0.184,-0.369L0.561,0.05L0.726,-0.067L0.511,-0.292L0.82,-0.133L0.985,-0.249L0.479,-0.752L0.322,-0.662L0.518,-0.465L0.233,-0.611L0.061,-0.511L0.256,-0.301Z" style="fill-rule:nonzero;"/>
                    </g>
                </g>
            </g>
        </g>
    </g>
</svg>
