<?xml version="1.0" encoding="UTF-8" standalone="no"?>
<!DOCTYPE svg PUBLIC "-//W3C//DTD SVG 1.1//EN" "http://www.w3.org/Graphics/SVG/1.1/DTD/svg11.dtd">
<svg width="100%" height="100%" viewBox="0 0 2476 3232" version="1.1" xmlns="http://www.w3.org/2000/svg" xmlns:xlink="http://www.w3.org/1999/xlink" xml:space="preserve" xmlns:serif="http://www.serif.com/" style="fill-rule:evenodd;clip-rule:evenodd;stroke-linejoin:round;stroke-miterlimit:2;">
    <g transform="matrix(1,0,0,1,-1033.490478,-1951.043648)">
        <g id="note-1" transform="matrix(7.510735,0,0,7.510735,536.733707,1622.203245)">
            <path d="M285.14,322.048C287.904,319.535 302.637,306.143 328.521,304.766C356.057,303.302 361.344,314.133 360.881,306.528C359.761,288.116 360.571,288.104 360.376,286.514C358.958,274.932 360.337,258.044 360.226,255.508C359.104,229.735 360.659,229.732 360.35,227.514C359.049,218.182 360.792,199.799 360.654,188.498C360.21,152.029 363.642,145.905 356.487,148.46C345.674,152.322 340.655,151.933 337.452,153.399C333.16,155.364 315.366,159.58 306.494,162.48C294.758,166.316 206.244,191.312 200.714,193.946C196.983,195.723 199.668,201.872 198.674,224.508C198.325,232.478 196.876,331.589 200.06,384.529C200.929,398.995 206.828,433.423 165.671,459.769C164.378,458.211 164.293,456.656 160.62,458.752C160.297,458.936 155.84,461.479 157.5,462.194C158.903,462.799 158.597,463.038 159.739,463.916C157.462,464.8 140.887,471.229 130.559,472.907C62.278,483.999 46.977,409.21 90.896,374.991C114.37,356.701 131.494,353.745 144.099,355.292C154.168,356.527 161.353,360.635 166.587,362.097C170.88,363.296 168.711,359.561 168.564,308.498C168.267,205.328 167.892,205.44 168.025,196.48C169.083,125.309 167.606,110.178 172.947,102.826C174.606,100.54 214.224,91.467 225.513,86.532C234.379,82.656 325.193,58.703 325.525,58.631C352.694,52.699 386.225,38.676 393.305,45.714C396.375,48.765 396.006,127.657 395.309,138.49C392.771,177.99 398.308,346.394 393.802,357.623C389.478,368.398 390.816,368.854 388.759,372.624C355.906,432.84 286.431,417.55 272.662,395.396C260.018,375.05 262.972,360.567 263.595,357.514C267.223,339.726 268.889,340.309 280.373,326.38C280.628,326.49 285.645,324.802 285.14,322.048Z" style="fill:rgb(6,6,6);"/>
        </g>
    </g>
</svg>
