<?xml version="1.0" encoding="UTF-8" standalone="no"?>
<!DOCTYPE svg PUBLIC "-//W3C//DTD SVG 1.1//EN" "http://www.w3.org/Graphics/SVG/1.1/DTD/svg11.dtd">
<svg width="100%" height="100%" viewBox="0 0 1225 3347" version="1.1" xmlns="http://www.w3.org/2000/svg" xmlns:xlink="http://www.w3.org/1999/xlink" xml:space="preserve" xmlns:serif="http://www.serif.com/" style="fill-rule:evenodd;clip-rule:evenodd;stroke-linejoin:round;stroke-miterlimit:2;">
    <g transform="matrix(1,0,0,1,-1729.757436,-1857.774179)">
        <g id="note-2" transform="matrix(7.510735,0,0,7.510735,-3328.266293,1664.203245)">
            <path d="M675.458,432.513C672.863,426.81 671.51,399.235 679.448,383.475C699.433,343.798 739.746,334.956 747.546,331.608C757.819,327.198 782.439,330.38 785.446,330.768C792.742,331.711 792.521,332.311 799.509,334.322C802.732,335.25 801.567,332.498 802.186,292.493C802.501,272.136 800.318,252.424 802.293,180.5C803.363,141.493 804.626,141.65 803.761,91.5C803.1,53.189 802.733,49.17 802.398,45.504C800.874,28.839 806.003,27.726 807.473,27.407C810.301,26.793 827.698,24.397 831.262,26.867C837.221,30.997 834.232,32.625 834.978,47.479C835.935,66.553 836.826,66.513 835.876,73.571C834.616,82.921 838.818,83.013 834.407,191.494C833.308,218.529 834.696,218.47 833.271,245.485C833.164,247.496 833.414,247.458 834.458,271.501C834.499,272.449 834.975,355.604 835.224,362.515C836.163,388.581 835.837,397.798 825.162,421.341C817.715,437.765 793.936,460.764 772.433,466.275C768.326,467.327 738.53,474.963 719.534,469.362C687.995,460.064 677.362,436.697 675.458,432.513Z" style="fill:rgb(13,13,11);"/>
        </g>
    </g>
</svg>
