<?xml version="1.0" encoding="UTF-8" standalone="no"?>
<!DOCTYPE svg PUBLIC "-//W3C//DTD SVG 1.1//EN" "http://www.w3.org/Graphics/SVG/1.1/DTD/svg11.dtd">
<svg width="100%" height="100%" viewBox="0 0 1962 1299" version="1.1" xmlns="http://www.w3.org/2000/svg" xmlns:xlink="http://www.w3.org/1999/xlink" xml:space="preserve" xmlns:serif="http://www.serif.com/" style="fill-rule:evenodd;clip-rule:evenodd;stroke-linecap:round;stroke-linejoin:round;stroke-miterlimit:72;">
    <g transform="matrix(1,0,0,1,-799.833333,-2228.833333)">
        <g id="shadow" transform="matrix(1,0,0,1,0,210)">
            <path d="M938.007,2741.363C913.974,2725.629 899.509,2698.825 899.55,2670.1C899.59,2641.374 914.131,2614.611 938.209,2598.946C1146.68,2463.309 1593.508,2172.59 1738.52,2078.241C1766.769,2059.862 1803.206,2059.9 1831.416,2078.34C1975.171,2172.304 2415.751,2460.286 2622.598,2595.49C2646.679,2611.231 2661.168,2638.08 2661.106,2666.848C2661.045,2695.617 2646.441,2722.404 2622.293,2738.041C2413.027,2873.551 1964.739,3163.839 1819.472,3257.907C1791.221,3276.201 1754.838,3276.11 1726.679,3257.675C1583.314,3163.82 1144.155,2876.319 938.007,2741.363Z" style="stroke:black;stroke-width:58.33px;"/>
        </g>
    </g>
</svg>
