<?xml version="1.0" encoding="UTF-8" standalone="no"?>
<!DOCTYPE svg PUBLIC "-//W3C//DTD SVG 1.1//EN" "http://www.w3.org/Graphics/SVG/1.1/DTD/svg11.dtd">
<svg width="100%" height="100%" viewBox="0 0 3622 2289" version="1.1" xmlns="http://www.w3.org/2000/svg" xmlns:xlink="http://www.w3.org/1999/xlink" xml:space="preserve" xmlns:serif="http://www.serif.com/" style="fill-rule:evenodd;clip-rule:evenodd;stroke-linecap:round;stroke-linejoin:round;stroke-miterlimit:72;">
    <g transform="matrix(1,0,0,1,-631.211286,-2926.675772)">
        <g id="SPACE-shadow" transform="matrix(1,0,0,1,-168.622047,1898.201145)">
            <path d="M977.664,2767.324C944.972,2745.922 925.332,2709.43 925.476,2670.356C925.621,2631.282 945.529,2594.935 978.378,2573.775C1448.11,2271.187 2885.531,1345.243 3248.213,1111.614C3299.929,1078.3 3365.639,1075.635 3419.883,1104.65C3594.631,1198.124 3988.597,1408.859 4217.747,1531.432C4253.92,1550.782 4277.101,1587.881 4278.632,1628.875C4280.162,1669.869 4259.814,1708.594 4225.185,1730.588C3725.109,2048.192 2249.32,2985.483 1865.228,3229.425C1809.074,3265.089 1737.246,3264.593 1681.589,3228.157C1518.322,3121.273 1175.231,2896.664 977.664,2767.324Z" style="stroke:black;stroke-width:58.33px;"/>
        </g>
    </g>
</svg>
