<?xml version="1.0" encoding="UTF-8" standalone="no"?>
<!DOCTYPE svg PUBLIC "-//W3C//DTD SVG 1.1//EN" "http://www.w3.org/Graphics/SVG/1.1/DTD/svg11.dtd">
<svg width="100%" height="100%" viewBox="0 0 3704 2908" version="1.1" xmlns="http://www.w3.org/2000/svg" xmlns:xlink="http://www.w3.org/1999/xlink" xml:space="preserve" xmlns:serif="http://www.serif.com/" style="fill-rule:evenodd;clip-rule:evenodd;stroke-linecap:round;stroke-linejoin:round;stroke-miterlimit:72;">
    <g transform="matrix(1,0,0,1,-610.211286,-2082.675772)">
        <g id="SPACE" transform="matrix(1,0,0,1,726.377953,1027.201145)">
            <g transform="matrix(1,0,0,1,-916,646)">
                <path d="M903.054,2718.481C859.371,2689.882 840.333,2635.515 856.634,2585.912C904.549,2440.11 1001.857,2144.01 1042.977,2018.887C1055.273,1981.469 1080.222,1949.504 1113.534,1928.487C1418.299,1736.212 2984.943,747.818 3382.955,496.713C3439.032,461.333 3510.594,461.916 3566.088,498.204C3717.696,597.34 4016.584,792.784 4132.495,868.578C4163.323,888.736 4186.742,918.392 4199.206,953.053C4240.955,1069.157 4340.29,1345.406 4391.024,1486.497C4409.167,1536.952 4390.165,1593.256 4345.159,1622.399C3964.265,1869.048 2280.44,2959.407 1865.598,3228.038C1809.306,3264.49 1736.812,3264.309 1680.702,3227.576C1493.741,3105.18 1073.601,2830.13 903.054,2718.481Z" style="fill:white;stroke:black;stroke-width:58.33px;"/>
            </g>
            <g transform="matrix(1,0,0,1,-916,646)">
                <path d="M3827.5,669.141C3827.5,669.141 3995.156,778.772 4099.219,846.819C4117.095,858.508 4127.889,878.407 4127.94,899.765C4127.991,921.123 4117.292,941.074 4099.472,952.848C3723.313,1201.381 2144.341,2244.631 1830.408,2452.052C1797.729,2473.643 1755.046,2472.534 1723.532,2449.274C1598.342,2356.871 1281.794,2123.229 1136.717,2016.148C1119.855,2003.703 1110.228,1983.733 1110.993,1962.789C1111.758,1941.846 1122.816,1922.632 1140.541,1911.449C1510.848,1677.826 3064.5,697.641 3064.5,697.641" style="fill:none;stroke:black;stroke-width:58.33px;"/>
            </g>
            <g transform="matrix(1,0,0,1,-916,646)">
                <path d="M1787,2599L1787,3116" style="fill:none;stroke:black;stroke-width:58.33px;"/>
            </g>
            <g transform="matrix(1,0,0,1,-726.377953,-1027.201145)">
                <g>
                    <g transform="matrix(1,0,0,1,1661.377953,1921.201145)">
                        <g transform="matrix(725.944104,0,0,725.944104,522.418692,1343.943745)">
                            <path d="M-0.516,0.425L-0.607,0.471C-0.66,0.498 -0.716,0.512 -0.775,0.507C-0.835,0.502 -0.888,0.479 -0.935,0.443C-0.976,0.411 -1.012,0.368 -1.005,0.312C-0.998,0.254 -0.949,0.21 -0.904,0.181C-0.845,0.143 -0.781,0.123 -0.71,0.122C-0.64,0.122 -0.576,0.142 -0.516,0.179L-0.633,0.254C-0.691,0.222 -0.749,0.22 -0.807,0.257L-0.85,0.31L-0.825,0.362C-0.789,0.39 -0.747,0.382 -0.709,0.364L-0.626,0.322C-0.51,0.264 -0.384,0.264 -0.277,0.343L-0.211,0.428L-0.222,0.518L-0.308,0.604C-0.371,0.645 -0.44,0.669 -0.515,0.671C-0.588,0.672 -0.654,0.654 -0.716,0.616L-0.597,0.538C-0.532,0.575 -0.468,0.569 -0.407,0.528L-0.363,0.474L-0.39,0.422C-0.429,0.392 -0.477,0.405 -0.516,0.425Z" style="fill-rule:nonzero;"/>
                        </g>
                        <g transform="matrix(725.944104,0,0,725.944104,964.79088,1343.943745)">
                            <path d="M-0.598,0.127L-0.721,0.207L-0.534,0.345L-0.651,0.421L-1.219,0.001L-0.992,-0.145L-0.869,-0.192L-0.736,-0.186L-0.612,-0.129L-0.534,-0.042L-0.528,0.048L-0.598,0.127ZM-0.893,-0.059L-0.995,0.007L-0.833,0.125L-0.731,0.059L-0.693,0.005L-0.731,-0.052L-0.813,-0.082L-0.893,-0.059Z" style="fill-rule:nonzero;"/>
                        </g>
                        <g transform="matrix(725.944104,0,0,725.944104,1352.575474,1343.943745)">
                            <path d="M-0.278,-0.17L-0.399,-0.091L-0.549,-0.151L-0.735,-0.03L-0.652,0.073L-0.774,0.153L-1.168,-0.376L-1.039,-0.46L-0.278,-0.17ZM-0.968,-0.321L-0.807,-0.121L-0.68,-0.204L-0.968,-0.321Z" style="fill-rule:nonzero;"/>
                        </g>
                        <g transform="matrix(725.944104,0,0,725.944104,1799.910171,1343.943745)">
                            <path d="M-1.171,-0.384L-1.298,-0.513C-1.32,-0.552 -1.331,-0.594 -1.319,-0.639C-1.307,-0.685 -1.271,-0.719 -1.233,-0.745L-1.092,-0.802L-0.935,-0.803L-0.777,-0.743L-0.894,-0.667L-1.005,-0.698L-1.114,-0.665C-1.147,-0.644 -1.168,-0.615 -1.156,-0.574C-1.142,-0.527 -1.089,-0.486 -1.053,-0.461C-1.003,-0.426 -0.946,-0.397 -0.885,-0.388C-0.836,-0.381 -0.788,-0.386 -0.746,-0.414C-0.721,-0.43 -0.695,-0.454 -0.694,-0.486C-0.693,-0.518 -0.715,-0.543 -0.738,-0.561L-0.621,-0.637C-0.585,-0.611 -0.547,-0.575 -0.531,-0.531C-0.518,-0.495 -0.521,-0.46 -0.539,-0.426L-0.631,-0.333C-0.68,-0.3 -0.736,-0.282 -0.795,-0.276L-0.984,-0.294L-1.171,-0.384Z" style="fill-rule:nonzero;"/>
                        </g>
                        <g transform="matrix(725.944104,0,0,725.944104,2281.273498,1343.943745)">
                            <path d="M-1.218,-1.171L-1.093,-1.089L-1.348,-0.924L-1.242,-0.853L-1.008,-1.004L-0.885,-0.923L-1.119,-0.771L-1.002,-0.694L-0.745,-0.862L-0.621,-0.781L-0.996,-0.536L-1.587,-0.932L-1.218,-1.171Z" style="fill-rule:nonzero;"/>
                        </g>
                    </g>
                </g>
            </g>
        </g>
    </g>
</svg>
